<svg xmlns="http://www.w3.org/2000/svg" width="25" height="23" viewBox="0 0 25 23">
    <path fill="#FF5A60" fill-rule="nonzero" d="M25 14.743V3.665C25 1.651 23.39 0 21.429 0H3.57C1.61 0 0 1.651 0 3.665v11.118c0 1.772 1.217 3.263 2.865 3.585v3.262c0 .363.157.766.432 1.007.235.242.588.363.902.363.354 0 .707-.161.942-.403l4.043-4.149h12.245c1.962 0 3.571-1.651 3.571-3.705zm-11.5-.363a.544.544 0 0 1-.549.564H11.5a.544.544 0 0 1-.55-.564v-.967c0-.322.236-.564.55-.564h1.452c.314 0 .55.242.55.564v.967zm2.238-5.68a4.099 4.099 0 0 1-1.452 1.29c-.314.2-.55.443-.667.725-.079.16-.118.402-.157.644 0 .201-.197.363-.393.363h-1.766c-.235 0-.432-.202-.392-.444.039-.523.157-.886.353-1.208.235-.362.706-.765 1.373-1.249.354-.201.59-.483.785-.805.197-.322.275-.685.275-1.128 0-.443-.118-.765-.353-1.047a1.31 1.31 0 0 0-.981-.403c-.354 0-.628.12-.864.322-.157.12-.235.322-.314.524-.078.241-.314.443-.588.403l-1.649-.04c-.196 0-.353-.202-.353-.404.078-.886.392-1.57.981-2.054.667-.524 1.61-.805 2.708-.805 1.217 0 2.159.322 2.826.926.706.604 1.02 1.45 1.02 2.538.197.684 0 1.289-.392 1.853z"/>
</svg>
