<svg xmlns="http://www.w3.org/2000/svg" width="72" height="38" viewBox="0 0 72 38">
    <g fill="none" fill-rule="evenodd">
        <path fill="#000" d="M0 36.19h70.2V38H0zM1.8 27.143h68.4v1.81H1.8zM12.6 18.095h54v1.81h-54z"/>
        <path fill="#FF5A60" d="M25.2 0h23.4v9.048H25.2zM18 19.905h23.4v7.238H18zM48.6 28.952H72v7.238H48.6z"/>
        <path fill="#FF5A60" d="M36 10.857h23.4v7.238H36zM0 28.952h23.4v7.238H0z" opacity=".378"/>
        <path fill="#000" d="M10.8 9.048h41.4v1.81H10.8zM27 0h23.4v1.81H27z"/>
        <path fill="#000" d="M25.2 9.048h23.4v1.81H25.2zM50.4 9.048h7.2v1.81h-7.2z"/>
        <g fill="#000">
            <path d="M0 27.143h1.8v9.048H0z"/>
        </g>
        <g fill="#000">
            <path d="M23.4 27.143h1.8V38h-1.8z"/>
        </g>
        <g fill="#000">
            <path d="M23.4 27.143h1.8V38h-1.8zM18 18.095h1.8v10.857H18zM41.4 18.095h1.8v10.857h-1.8zM10.8 9.048h1.8v10.857h-1.8zM25.2 0H27v9.048h-1.8zM34.2 10.857H36v9.048h-1.8zM64.8 18.095h1.8v10.857h-1.8z"/>
        </g>
        <g fill="#000">
            <path d="M46.8 27.143h1.8V38h-1.8z"/>
        </g>
        <g>
            <path fill="#000" d="M70.2 27.143H72V38h-1.8zM57.6 9.048h1.8v10.857h-1.8zM48.6 1.81h1.8v9.048h-1.8z"/>
            <path fill="#FF5A60" d="M27 1.81h21.6v3.619H27z"/>
        </g>
    </g>
</svg>
