<svg xmlns="http://www.w3.org/2000/svg" xmlns:xlink="http://www.w3.org/1999/xlink" width="40" height="40" viewBox="0 0 40 40">
    <defs>
        <path id="a" d="M0 25.5V.78h20.504V25.5z"/>
    </defs>
    <g fill="none" fill-rule="evenodd">
        <path fill="#F05B61" d="M12.933 24.035a1.185 1.185 0 0 0-.33-.24 3.974 3.974 0 0 0-.836-.295v2.21c.464-.051.995-.22 1.238-.652.116-.206.14-.46.092-.69a.684.684 0 0 0-.164-.333"/>
        <path fill="#231F20" d="M13.004 25.062l.002-.004-.002.004M13.014 25.042l-.008.016.008-.016M12.997 25.074l-.01.016.01-.016M29.277 25.042"/>
        <path stroke="#231F20" stroke-dasharray="2,2,2,2,2,2" d="M28.81 12.993c1.88-1.58 3.136-5.14 2.362-5.294-1.027-.207-1.354-.57-4.337.86-1.389.666-3.195-1.66-4.13-.631-.76.836.544 3.873 2.587 5.197-6.093 2.994-14.657 18.028.284 19.118 20.672 1.51 10.321-16.332 3.233-19.25z"/>
        <path stroke="#231F20" stroke-width=".25" d="M29.268 25.058c-.243.433-.775.601-1.238.653V23.5c.285.076.572.16.836.296.12.063.237.138.33.24a.694.694 0 0 1 .164.333c.047.23.024.483-.092.69zm-2.454-3.106a4.698 4.698 0 0 1-.388-.134 2.132 2.132 0 0 1-.397-.205.693.693 0 0 1-.268-.295.935.935 0 0 1-.048-.429.837.837 0 0 1 .144-.389c.213-.31.601-.473.957-.549v2.001zm3.525 1.6c.042.075.083.146-.002-.003a.723.723 0 0 0-.002-.003c-.277-.484-.758-.792-1.267-.992a7.682 7.682 0 0 0-1.038-.309v-2.302c.295.053.591.147.835.326.112.083.211.184.287.302.04.06.072.124.098.191.027.067.04.137.065.203a.614.614 0 0 0 .541.39.611.611 0 0 0 .577-.35c.051-.108.068-.23.051-.347a1.264 1.264 0 0 0-.058-.217 2.324 2.324 0 0 0-.571-.921c-.429-.422-1.002-.665-1.588-.77a4.844 4.844 0 0 0-.237-.037v-.668a.612.612 0 0 0-.354-.552.612.612 0 0 0-.657.096.61.61 0 0 0-.205.456v.672c-.597.084-1.192.315-1.64.727a2.12 2.12 0 0 0-.499.684 2.076 2.076 0 0 0-.182.882c.002.298.056.6.188.87.124.256.315.472.538.647.461.358 1.036.544 1.595.69v2.404a1.815 1.815 0 0 1-.775-.42 1.555 1.555 0 0 1-.36-.542c-.026-.07-.042-.142-.064-.21a.616.616 0 0 0-.524-.416.615.615 0 0 0-.593.324.617.617 0 0 0-.066.343c.008.07.028.138.048.206a2.674 2.674 0 0 0 .534.977c.387.453.917.758 1.488.916.103.028.206.051.312.071v.708c0 .235.14.454.353.553.217.1.48.06.658-.097a.616.616 0 0 0 .205-.456v-.647c.61-.05 1.225-.227 1.716-.607.463-.36.774-.89.838-1.475a2.17 2.17 0 0 0-.245-1.297z"/>
        <path fill="#231F20" d="M29.26 25.074l-.01.016c.002-.003.005-.01.01-.016"/>
        <path fill="#F05B61" d="M9.595 20.5a.826.826 0 0 0-.144.39.96.96 0 0 0 .047.428c.053.126.16.22.269.295.123.084.26.15.398.204.116.048.246.092.387.135v-2c-.355.075-.745.237-.957.548"/>
        <g transform="translate(1 6.834)">
            <mask id="b" fill="#fff">
                <use xlink:href="#a"/>
            </mask>
            <path fill="#FF5A60" d="M13.322 18.015a2.173 2.173 0 0 1-.838 1.476c-.49.38-1.105.556-1.717.606v.647a.61.61 0 0 1-.205.456.611.611 0 0 1-.656.097.614.614 0 0 1-.355-.553v-.707a4.237 4.237 0 0 1-.31-.072c-.572-.157-1.102-.463-1.488-.915a2.642 2.642 0 0 1-.535-.978c-.02-.067-.04-.136-.047-.205a.606.606 0 0 1 1.181-.253c.024.07.04.142.066.211.025.069.056.136.092.2.073.125.164.241.268.342.215.206.488.341.773.421v-2.406c-.557-.144-1.133-.331-1.594-.689a1.851 1.851 0 0 1-.538-.647 2.022 2.022 0 0 1-.188-.87 2.091 2.091 0 0 1 .182-.882c.12-.258.29-.491.5-.684.447-.412 1.042-.642 1.638-.727v-.672a.61.61 0 0 1 .863-.552.61.61 0 0 1 .353.552v.669c.08.01.16.022.24.036.585.106 1.158.348 1.586.77a2.336 2.336 0 0 1 .572.921c.023.071.046.143.057.218a.615.615 0 0 1-.05.346.615.615 0 0 1-.579.35.612.612 0 0 1-.54-.389c-.025-.067-.039-.137-.064-.203a1.142 1.142 0 0 0-.387-.493c-.244-.18-.539-.274-.835-.326v2.302a7.61 7.61 0 0 1 1.04.309c.508.2.99.507 1.267.992-.043-.075-.085-.149.001.002.085.149.045.078.002.004.221.389.293.854.245 1.296M11.547 6.159c1.88-1.58 3.136-5.139 2.363-5.294-1.027-.207-3.258.7-4.337.86-1.529.185-3.195-1.659-4.13-.631-.76.836.545 3.873 2.587 5.197-6.093 2.995-14.657 18.028.284 19.119 20.673 1.509 10.32-16.333 3.233-19.251" mask="url(#b)"/>
        </g>
    </g>
</svg>
