<svg xmlns="http://www.w3.org/2000/svg" width="59" height="54" viewBox="0 0 59 54">
    <g fill="none" fill-rule="evenodd">
        <g fill-rule="nonzero">
            <path fill="#FF5A60" d="M47.903 16.359a.948.948 0 0 1-.558.49l-6.13 2.102a.874.874 0 0 1-.313.049.977.977 0 0 1-.92-.655L35.172 4.328l-.245.088A4.978 4.978 0 0 1 31.11 4.2l-.597-.294a3.007 3.007 0 0 0-2.292-.137L17.037 7.624c.118.43.343.93.735 1.203.45.313 1.145.313 2.056 0l5.014-1.711a.971.971 0 0 1 .773.068.991.991 0 0 1 .48.607c.01.029.715 2.611 2.89 3.775 1.37.734 3.084.753 5.091.069a.97.97 0 1 1 .627 1.839c-1.175.4-2.292.606-3.33.606a6.946 6.946 0 0 1-3.32-.812c-1.958-1.056-2.996-2.876-3.476-4l-4.112 1.408c-1.528.518-2.801.44-3.79-.245C15.118 9.356 15.01 7.253 15 7.018a.99.99 0 0 1 .656-.949l11.947-4.118a4.971 4.971 0 0 1 3.78.235l.598.293a3.036 3.036 0 0 0 2.32.137l.99-.352a.65.65 0 0 1 .186-.088l6.1-2.123a.97.97 0 0 1 1.234.607l5.141 14.965c.079.235.06.5-.049.734zm-6.62-14.163l-4.289 1.467L41.5 16.799l4.29-1.467-4.505-13.136z"/>
            <path fill="#2C2F33" d="M38.141 24.751c-.484.963-1.453 1.521-2.481 1.56 0 .414-.099.838-.287 1.223a2.798 2.798 0 0 1-1.65 1.415 2.85 2.85 0 0 1-.93.154c-.435 0-.86-.096-1.256-.289l-.514-.25a2.798 2.798 0 0 1-1.918 2.282 2.85 2.85 0 0 1-.929.154c-.435 0-.86-.096-1.255-.289l-11.24-5.363A28.986 28.986 0 0 1 8.8 20.774l-2.511-2.243-5.744-2.734A.937.937 0 0 1 .1 14.526l7-13.99a.95.95 0 0 1 .563-.482.971.971 0 0 1 .751.048l5.873 2.802c.484.231.682.8.444 1.27L8.03 17.52l2.076 1.858a27.352 27.352 0 0 0 6.416 4.266l11.24 5.363a.93.93 0 0 0 1.226-.414.864.864 0 0 0 .04-.684.915.915 0 0 0-.465-.51l-6.288-2.995a.937.937 0 0 1-.445-1.27.986.986 0 0 1 1.305-.434l6.288 2.995 2.966 1.415a.93.93 0 0 0 1.225-.414.864.864 0 0 0 .04-.684.915.915 0 0 0-.465-.51l-9.016-4.294a.937.937 0 0 1-.444-1.271.986.986 0 0 1 1.305-.433l10.133 4.823a.94.94 0 0 0 1.225-.404.864.864 0 0 0 .04-.684.915.915 0 0 0-.465-.51l-3.994-1.906-5.19-2.475a.937.937 0 0 1-.445-1.27.986.986 0 0 1 1.305-.434l8.077 3.851a.94.94 0 0 0 1.226-.404.894.894 0 0 0-.415-1.194l-4.29-2.041a.937.937 0 0 1-.446-1.271.986.986 0 0 1 1.305-.434l4.29 2.042c1.424.674 2.018 2.359 1.316 3.745a2.81 2.81 0 0 1-.811.973c.593.78.732 1.887.247 2.84zM12.547 4.194L8.434 2.23 2.265 14.506l4.113 1.965 6.169-12.277z"/>
        </g>
        <path fill="#000" fill-rule="nonzero" d="M58.971 23.595c-.002-.01-.008-.018-.012-.028a.798.798 0 0 0-.074-.168c-.013-.022-.032-.04-.048-.06-.028-.037-.055-.075-.088-.107-.023-.021-.05-.039-.075-.057-.028-.021-.053-.046-.084-.064-.007-.004-.016-.006-.022-.01l-.02-.014-15.6-7.987a.917.917 0 0 0-.813-.01L7.468 31.864c-.012.006-.02.016-.032.022-.014.008-.03.012-.044.02-.026.017-.047.038-.07.057-.024.018-.048.035-.07.055a.776.776 0 0 0-.09.106c-.016.021-.033.04-.047.062a.78.78 0 0 0-.07.154c-.004.015-.012.027-.016.042a.78.78 0 0 0-.029.205v13.579a.81.81 0 0 0 .508.739l16.467 7.023c.013.006.027.003.04.008a.895.895 0 0 0 .318.065.917.917 0 0 0 .226-.03c.024-.007.046-.017.07-.025.035-.012.073-.021.106-.038l33.8-16.608a.805.805 0 0 0 .465-.72V23.802c0-.07-.01-.14-.029-.206zm-16.45-6.862l13.73 7.03-31.938 14.716-14.436-5.951 32.644-15.795zM8.733 33.858l14.734 6.397v11.67L8.733 45.642V33.858zM25.2 51.845V40.318l32.067-15.196v10.966L25.2 51.845z"/>
        <path fill="#FFF" d="M8.81 33.86v11.81l14.557 6.226.332-11.703z"/>
        <path fill="#FF5A60" d="M25.163 40.277v11.66l32.39-15.771-.295-11.05z"/>
        <path fill="#FEABAE" d="M9.86 32.482l14.488 6.068 31.988-14.813-13.823-7.078z"/>
    </g>
</svg>
